    <svg
      width="72"
      height="52"
      viewBox="0 0 72 52"
      fill="none"
      xmlns="http://www.w3.org/2000/svg"
    >
      <path
        d="M55.6408 19.5H51.5183C50.2942 14.7907 47.7648 10.517 44.2177 7.16428C40.6705 3.81161 36.2477 1.51447 31.4518 0.533897C26.656 -0.446677 21.6794 -0.071369 17.0876 1.61717C12.4958 3.30572 8.47279 6.23979 5.47582 10.086C2.47886 13.9322 0.628062 18.5363 0.133743 23.3751C-0.360576 28.214 0.521402 33.0936 2.67946 37.4594C4.83751 41.8252 8.18512 45.5022 12.3419 48.0726C16.4986 50.6429 21.2979 52.0036 26.1942 52H55.6408C59.9795 52 64.1406 50.2879 67.2085 47.2405C70.2765 44.193 72 40.0598 72 35.75C72 31.4402 70.2765 27.307 67.2085 24.2595C64.1406 21.212 59.9795 19.5 55.6408 19.5Z"
        fill="#FFDEDA"
      />
    </svg>