<svg xmlns="http://www.w3.org/2000/svg" width="220" height="109" viewBox="0 0 220 109" fill="none">
  <g filter="url(#filter0_f_531_1233)">
    <path fill-rule="evenodd" clip-rule="evenodd" d="M56.6789 28.6204C64.7221 14.5263 79.9452 5 97.395 5C112.404 5 125.753 12.0206 134.31 22.9535C139.81 20.1112 146.05 18.5056 152.655 18.5056C171.358 18.5056 187.024 31.2967 191.503 48.6468C204.826 50.7308 215 62.17 215 76.0848C215 91.4698 202.549 103.999 187.151 103.999H138.268C138.216 103.999 138.164 104 138.111 104H62.4953C60.4494 104 58.4388 103.838 56.4762 103.527C54.8023 103.842 53.0963 104.001 51.379 104H23.6278C18.6649 104 13.9196 101.995 10.4317 98.4487C6.9462 94.9048 5 90.1127 5 85.1299C5 80.1471 6.9462 75.3549 10.4317 71.8111C13.9196 68.2649 18.6649 66.2598 23.6278 66.2598H24.3868C24.3865 66.1986 24.3864 66.1375 24.3864 66.0763C24.3864 47.1253 38.3773 31.3885 56.6789 28.6204ZM97.395 11.3871C81.8298 11.3871 68.3015 20.1741 61.5607 33.0534L60.7655 34.5727L59.0537 34.7538C43.1639 36.4349 30.8047 49.8372 30.8047 66.0763C30.8047 66.8988 30.8364 67.7135 30.8986 68.5192L30.9423 69.0857L30.787 69.6325C30.7301 69.8326 30.676 70.0337 30.6247 70.2357L30.0124 72.6468H23.6278C20.4122 72.6468 17.3139 73.945 15.0187 76.2786C12.7211 78.6147 11.4183 81.7973 11.4183 85.1299C11.4183 88.4624 12.7211 91.6451 15.0187 93.9811C17.3139 96.3148 20.4122 97.6129 23.6278 97.6129H51.3839C52.8596 97.614 54.3248 97.46 55.7571 97.157L56.3666 97.0281L56.9803 97.1355C58.7696 97.4487 60.6122 97.6125 62.4953 97.6125H138.111C138.156 97.6125 138.2 97.6124 138.244 97.6121L138.252 97.6121H187.151C198.955 97.6121 208.582 87.9916 208.582 76.0848C208.582 64.7201 199.794 55.5215 188.652 54.7476L186.198 54.5772L185.726 52.1746C182.66 36.5687 169.01 24.8927 152.655 24.8927C146.218 24.8927 140.207 26.7054 135.091 29.8513L132.481 31.4559L130.753 28.9338C123.481 18.3227 111.26 11.3871 97.395 11.3871Z" fill="url(#paint0_linear_531_1233)" fill-opacity="0.8"/>
  </g>
  <path fill-rule="evenodd" clip-rule="evenodd" d="M165.811 49.3362C165.369 47.981 164.08 47 162.559 47C161.393 47 160.363 47.5762 159.747 48.4555C159.656 48.4469 159.563 48.4424 159.47 48.4424C157.91 48.4424 156.62 49.6719 156.411 51.2692C154.622 51.2745 153.069 51.317 151.611 51.3969C149.487 51.4824 148.49 52.4652 148.49 53.7899C148.49 55.4138 149.79 56.1403 152.001 56.0548C152.774 56.0373 153.523 56.0198 154.24 56.003L154.244 56.0029L154.245 56.0029C157.028 55.9378 159.337 55.8839 160.715 55.8839C161.322 55.8839 161.495 56.0121 161.495 56.4394V56.9522C161.495 57.4223 161.278 57.6787 160.498 57.6787H160.498C157.377 57.6787 154.732 57.6787 151.828 57.8923C149.66 58.0205 149.096 58.747 148.966 60.1144C148.836 61.14 148.836 63.4049 148.88 64.9433C148.966 67.3791 149.313 68.0628 152.825 68.3192C157.29 68.5756 162.926 68.4474 166.524 68.1055C168.648 67.9346 169.472 67.0799 169.342 65.627C169.255 64.2168 168.431 63.5331 165.917 63.6613C161.799 63.8749 158.157 63.9177 155.079 63.7468C154.559 63.704 154.472 63.6185 154.472 63.2767V62.7212C154.472 62.2938 154.732 62.1229 155.382 62.1229C158.07 62.0374 161.322 61.952 164.356 61.9092C166.35 61.8665 166.957 60.8409 167.044 59.4734C167.127 57.994 167.131 56.5541 167.015 54.7356C167.579 54.1353 167.924 53.3318 167.924 52.4489C167.924 51.0442 167.051 49.8404 165.811 49.3362ZM52.2952 47.3205C53.8336 47.3205 55.155 48.2362 55.7291 49.5449C56.526 49.8846 57.1793 50.4897 57.5743 51.2473C61.1298 51.2557 64.5333 51.3395 67.2433 51.5432C70.7548 51.7996 72.0987 53.8081 72.0987 56.7566C72.0987 58.466 72.0554 61.2009 71.9253 62.5256C71.7085 64.3204 70.5814 65.4315 68.5872 65.2605C66.593 65.0896 65.8127 64.2777 65.9428 62.312C66.0295 60.9445 66.0728 58.936 66.0728 58.5514C66.0728 57.3122 65.9428 57.013 64.6422 56.9703C64.4567 56.9651 64.27 56.9599 64.0823 56.9546L64.051 56.9537L64.049 56.9537C59.5942 56.8284 54.5207 56.6858 49.209 57.0131C47.2368 57.1471 45.8246 56.3873 45.3073 55.2285C44.7966 54.5982 44.4912 53.7991 44.4912 52.9297C44.4912 50.894 46.1654 49.2437 48.2307 49.2437C48.4843 49.2437 48.732 49.2686 48.9714 49.316C49.5931 48.1307 50.8482 47.3205 52.2952 47.3205ZM107.994 66.3702C99.1502 66.5838 90.003 66.5411 81.2026 66.4129C78.6882 66.3702 77.9512 66.9684 77.8645 68.4214C77.7778 69.8743 78.6015 70.8144 80.639 70.8571C87.7054 70.8999 103.182 70.8571 108.341 70.6007C110.335 70.4725 111.505 70.0025 111.505 68.5923C111.505 67.0966 110.638 66.3274 107.994 66.3702ZM81.7662 57.0971C81.6361 59.4047 81.6361 62.8233 81.8529 63.8489C82.0696 64.7036 82.5898 65.1736 83.5869 65.2164C85.2042 65.2164 86.8033 65.2223 88.392 65.2283H88.3921H88.3922H88.3923H88.3924H88.3925H88.3926H88.3927H88.3927C94.1716 65.2498 99.814 65.2708 105.696 65.0027C107.43 64.9172 108.081 63.9344 108.081 62.9515C108.081 61.9687 107.691 60.9003 106.13 60.9003C105.263 60.9003 90.7833 60.9003 87.2718 60.9431C86.8817 60.9431 86.6649 60.7294 86.6649 60.3021C86.6649 59.832 86.8383 59.7465 87.2718 59.7465C90.3419 59.8497 99.3076 59.6208 102.963 59.5274L102.963 59.5274L102.964 59.5274L102.965 59.5274L102.966 59.5274L102.967 59.5274C103.852 59.5048 104.424 59.4901 104.526 59.4901C106.347 59.4901 106.823 59.191 106.997 57.6099C107.17 56.1142 107.257 53.8494 107.17 52.3537C107.084 50.7299 106.65 50.388 104.049 50.2171C98.8901 49.8325 90.2631 49.9179 84.4106 50.0889C82.2864 50.1316 81.2459 50.7299 81.2459 52.3964C81.2459 54.0203 82.85 54.4904 85.3644 54.4049C90.003 54.3194 96.6358 54.234 100.754 54.1912C101.318 54.1912 101.535 54.3622 101.535 54.9177C101.535 55.3878 101.405 55.5587 100.754 55.5587L83.5436 55.6014C82.3297 55.6014 81.8095 55.986 81.7662 57.0971ZM105.176 72.1391C100.494 72.0537 89.3961 72.0964 84.1072 72.1391C82.3297 72.1391 81.4193 72.7801 81.4193 75.1732C81.4193 76.5406 81.4627 78.9764 81.5061 79.6602C81.6361 81.7968 82.8066 82.3951 84.9742 82.4805C90.87 82.6942 99.0202 82.6942 104.309 82.4805C106.433 82.3951 107.647 81.7968 107.777 79.6602C107.821 78.9764 107.821 76.5406 107.821 75.1732C107.821 72.7374 106.91 72.1819 105.176 72.1391ZM101.708 78.3782C97.7196 78.5064 91.8238 78.5491 87.5753 78.3782C87.0551 78.3782 86.925 78.25 86.8817 77.9508V76.7543C86.8817 76.4552 87.0551 76.2842 87.4886 76.2842L88.0171 76.2781C91.8205 76.2341 98.0672 76.1619 101.708 76.2842C102.141 76.2842 102.315 76.4552 102.315 76.7543V77.9508C102.315 78.25 102.228 78.3782 101.708 78.3782ZM55.495 71.7987C55.4516 74.32 55.4516 77.995 55.5383 79.5334C55.625 81.5418 57.2724 82.5674 58.7464 82.6102C60.307 82.6102 61.9977 81.2854 61.9977 78.5505C61.9977 76.9874 62.0503 74.9065 62.094 73.1742V73.1742L62.094 73.174V73.174L62.094 73.1738V73.1738L62.094 73.1737L62.094 73.1735V73.1734L62.094 73.1725L62.0942 73.165C62.1066 72.675 62.1182 72.213 62.1278 71.7987C66.5497 71.756 70.5814 71.585 72.8357 71.3714C74.8299 71.1577 75.5235 70.3885 75.5235 68.8928C75.5235 67.3117 74.5698 66.0725 71.9253 66.2007C63.7752 66.5853 53.8043 66.5425 45.3507 66.2434C42.8363 66.2007 42.1426 67.2263 42.0126 68.7219C41.8825 70.2176 42.7496 71.2432 45.1339 71.4141C47.9518 71.6278 51.68 71.756 55.495 71.7987ZM118.239 62.538L118.239 62.5381L118.238 62.5391C116.275 66.452 114.078 70.8302 112.421 74.3884C111.684 76.0122 112.031 77.6361 113.288 78.1916C115.023 78.9608 116.583 77.6361 117.58 75.6276C118.35 74.0148 119.187 72.4284 119.987 70.9121L119.987 70.9117L119.987 70.9114C120.628 69.696 121.245 68.5256 121.785 67.4229C122.132 66.7391 122.696 66.6109 123.043 67.4229C123.771 69.1281 124.648 71.0428 125.614 73.1523L125.615 73.1528L125.616 73.1551L125.618 73.1602C126.031 74.0615 126.46 74.9983 126.901 75.9695C127.638 77.5506 129.632 78.2771 130.889 77.5933C132.493 76.6959 132.45 75.0294 131.756 73.1491C131.063 71.1834 128.375 66.3973 126.077 62.3376L128.852 62.4658C131.106 62.594 132.45 61.8248 132.45 60.2437C132.45 58.748 131.756 57.637 129.805 57.4661C128.245 57.3379 126.771 57.2524 125.297 57.2097V55.5003C125.297 52.5945 124.04 51.7398 122.349 51.7398C120.138 51.7398 119.228 53.0218 119.141 55.2439C119.098 55.5003 119.098 56.3977 119.098 57.2524C117.494 57.2951 115.89 57.3379 114.199 57.4661C112.378 57.5943 111.468 58.5771 111.598 60.0728C111.684 61.5684 112.291 62.5513 114.806 62.4231L118.361 62.2949L118.239 62.538ZM137.479 63.3205C136.222 63.3632 135.008 63.3632 133.534 63.3205C131.93 63.2778 130.803 64.4743 130.803 65.799C130.759 67.2947 131.67 68.7049 133.49 68.8331C135.008 68.9185 136.265 68.9612 137.565 68.9612C137.565 72.038 137.479 75.1148 137.392 78.0207C137.305 80.6274 138.389 82.0376 140.34 82.0376C142.291 82.0376 143.245 80.4992 143.375 78.0207C143.635 72.2517 143.721 60.5856 143.375 56.2268C143.114 52.6799 141.684 51.6971 139.906 51.6971C137.999 51.6971 137.132 52.8509 137.262 54.9875C137.349 57.5515 137.435 60.3719 137.479 63.3205ZM155.556 70.1994C161.625 69.9003 171.032 69.8148 175.021 70.1994C177.665 70.4558 178.489 70.9259 178.489 73.1053V80.199C178.489 81.9083 177.492 82.6775 175.368 82.763C168.952 82.9766 162.015 83.1476 155.989 82.8057C153.822 82.6775 152.651 82.0793 152.521 79.8999C152.435 78.6608 152.435 74.9439 152.435 72.7644V72.7634C152.435 71.0968 153.432 70.3276 155.556 70.1994ZM158.894 78.1051C163.012 78.276 167.955 78.1905 172.333 78.0623C172.81 78.0623 172.853 77.9769 172.853 77.635C172.897 76.8658 172.897 76.1393 172.897 75.3701C172.897 74.9001 172.723 74.7292 172.333 74.7292C168.215 74.5582 162.579 74.6437 158.807 74.8574C158.46 74.8574 158.33 75.0283 158.287 75.3274C158.244 75.883 158.244 77.2504 158.287 77.6777C158.287 77.9341 158.374 78.0623 158.894 78.1051ZM170.902 56.7813C171.183 56.7813 171.491 56.7721 171.822 56.7623C172.209 56.7509 172.627 56.7385 173.07 56.7385C173.048 56.3872 173.037 56.0132 173.026 55.6283C173.015 55.2642 173.004 54.8903 172.983 54.5164C172.897 51.6533 173.764 50.5422 175.541 50.4568C177.449 50.3286 178.706 51.226 178.879 54.8155C179.053 58.4051 179.053 61.311 178.792 64.9433C178.619 67.4218 177.622 68.7038 175.845 68.7038C174.067 68.7038 173.027 67.5073 173.07 64.9433C173.07 64.5227 173.08 64.074 173.09 63.5972V63.5969V63.5967V63.5964C173.101 63.0559 173.113 62.4793 173.113 61.8665C172.376 61.8238 171.639 61.8238 170.946 61.8238C168.952 61.8238 167.998 60.7127 168.085 59.217C168.171 57.8069 168.995 56.8667 170.902 56.7813Z" fill="url(#paint1_linear_531_1233)"/>
  <defs>
    <filter id="filter0_f_531_1233" x="0" y="0" width="220" height="109" filterUnits="userSpaceOnUse" color-interpolation-filters="sRGB">
      <feFlood flood-opacity="0" result="BackgroundImageFix"/>
      <feBlend mode="normal" in="SourceGraphic" in2="BackgroundImageFix" result="shape"/>
      <feGaussianBlur stdDeviation="2.5" result="effect1_foregroundBlur_531_1233"/>
    </filter>
    <linearGradient id="paint0_linear_531_1233" x1="211.885" y1="54.6062" x2="8.20916" y2="54.6062" gradientUnits="userSpaceOnUse">
      <stop stop-color="#FFE4AE" stop-opacity="0.4"/>
      <stop offset="0.379166" stop-color="#FFE4AE"/>
      <stop offset="0.660416" stop-color="#FFE4AE"/>
      <stop offset="1" stop-color="#FFE4AE" stop-opacity="0.4"/>
    </linearGradient>
    <linearGradient id="paint1_linear_531_1233" x1="110.5" y1="72.5062" x2="110.5" y2="83" gradientUnits="userSpaceOnUse">
      <stop offset="0.363541" stop-color="#FFB8AE"/>
      <stop offset="1" stop-color="#FFDEDA"/>
    </linearGradient>
  </defs>
</svg>